# WaveFront *.obj file
# Vertices: 76
# Triangles : 152

v 0.0000000000000000e+00 -8.5000000000000031e-01 8.5073066839002021e-01
v 2.9999999999999999e-02 -7.2864745084375826e-01 9.3889845623389068e-01
v 2.9999999999999999e-02 -7.2864745084375870e-01 6.7721459698891531e+00
v 0.0000000000000000e+00 -8.5000000000000075e-01 6.8603137577330235e+00
v -2.9999999999999999e-02 -7.2864745084375826e-01 9.3889845623389068e-01
v -2.9999999999999999e-02 8.5000000000000053e-01 2.0858529659991385e+00
v 2.9999999999999999e-02 8.5000000000000053e-01 2.0858529659991385e+00
v -2.9999999999999999e-02 -7.2864745084375870e-01 6.7721459698891531e+00
v -2.9999999999999999e-02 8.5000000000000053e-01 5.6251914601239070e+00
v -2.9999999999999999e-02 8.5000000000000053e-01 4.3229890118466168e+00
v -2.9999999999999999e-02 6.4029201214341502e-01 4.3229890118466168e+00
v -2.9999999999999999e-02 5.8908937266190153e-01 4.3092693059472031e+00
v -2.9999999999999999e-02 5.5160643907980145e-01 4.2717863723651037e+00
v -2.9999999999999999e-02 5.3788673318038804e-01 4.2205837328835898e+00
v -2.9999999999999999e-02 5.5160643907980145e-01 4.1693810934020767e+00
v -2.9999999999999999e-02 5.8908937266190153e-01 4.1318981598199764e+00
v -2.9999999999999999e-02 6.4029201214341502e-01 4.1181784539205628e+00
v -2.9999999999999999e-02 8.5000000000000042e-01 4.1181784539205628e+00
v -2.9999999999999999e-02 8.5000000000000053e-01 3.5928659722024827e+00
v -2.9999999999999999e-02 6.4029201214341502e-01 3.5928659722024827e+00
v -2.9999999999999999e-02 5.8908937266190131e-01 3.5791462663030691e+00
v -2.9999999999999999e-02 5.5160643907980111e-01 3.5416633327209692e+00
v -2.9999999999999999e-02 5.3788673318038760e-01 3.4904606932394553e+00
v -2.9999999999999999e-02 5.5160643907980111e-01 3.4392580537579418e+00
v -2.9999999999999999e-02 5.8908937266190131e-01 3.4017751201758415e+00
v -2.9999999999999999e-02 6.4029201214341502e-01 3.3880554142764279e+00
v -2.9999999999999999e-02 8.5000000000000042e-01 3.3880554142764283e+00
v -2.9999999999999999e-02 -3.0616169978683830e-17 4.1055222130615219e+00
v -2.9999999999999999e-02 -1.0168416076895011e-01 4.0839085774721724e+00
v -2.9999999999999999e-02 -1.8578620636934856e-01 4.0228048646512367e+00
v -2.9999999999999999e-02 -2.3776412907378841e-01 3.9327764616552585e+00
v -2.9999999999999999e-02 -2.4863047384206832e-01 3.8293900972446084e+00
v -2.9999999999999999e-02 -2.1650635094610968e-01 3.7305222130615219e+00
v -2.9999999999999999e-02 -1.4694631307311828e-01 3.6532679644677852e+00
v -2.9999999999999999e-02 -5.1977922704439905e-02 3.6109853128780705e+00
v -2.9999999999999999e-02 5.1977922704439794e-02 3.6109853128780705e+00
v -2.9999999999999999e-02 1.4694631307311828e-01 3.6532679644677852e+00
v -2.9999999999999999e-02 2.1650635094610962e-01 3.7305222130615219e+00
v -2.9999999999999999e-02 2.4863047384206832e-01 3.8293900972446084e+00
v -2.9999999999999999e-02 2.3776412907378841e-01 3.9327764616552585e+00
v -2.9999999999999999e-02 1.8578620636934862e-01 4.0228048646512367e+00
v -2.9999999999999999e-02 1.0168416076895020e-01 4.0839085774721724e+00
v 2.9999999999999999e-02 -3.0616169978683830e-17 4.1055222130615219e+00
v 2.9999999999999999e-02 -1.0168416076895020e-01 4.0839085774721724e+00
v 2.9999999999999999e-02 -1.8578620636934862e-01 4.0228048646512367e+00
v 2.9999999999999999e-02 -2.3776412907378841e-01 3.9327764616552585e+00
v 2.9999999999999999e-02 -2.4863047384206832e-01 3.8293900972446084e+00
v 2.9999999999999999e-02 -2.1650635094610962e-01 3.7305222130615219e+00
v 2.9999999999999999e-02 -1.4694631307311828e-01 3.6532679644677852e+00
v 2.9999999999999999e-02 -5.1977922704439794e-02 3.6109853128780705e+00
v 2.9999999999999999e-02 5.1977922704439905e-02 3.6109853128780705e+00
v 2.9999999999999999e-02 1.4694631307311828e-01 3.6532679644677852e+00
v 2.9999999999999999e-02 2.1650635094610968e-01 3.7305222130615219e+00
v 2.9999999999999999e-02 2.4863047384206832e-01 3.8293900972446084e+00
v 2.9999999999999999e-02 2.3776412907378841e-01 3.9327764616552585e+00
v 2.9999999999999999e-02 1.8578620636934856e-01 4.0228048646512367e+00
v 2.9999999999999999e-02 1.0168416076895011e-01 4.0839085774721724e+00
v 2.9999999999999999e-02 6.4029201214341502e-01 3.3880554142764279e+00
v 2.9999999999999999e-02 8.5000000000000042e-01 3.3880554142764283e+00
v 2.9999999999999999e-02 8.5000000000000053e-01 5.6251914601239070e+00
v 2.9999999999999999e-02 8.5000000000000053e-01 4.3229890118466168e+00
v 2.9999999999999999e-02 6.4029201214341502e-01 4.3229890118466168e+00
v 2.9999999999999999e-02 5.8908937266190153e-01 4.3092693059472031e+00
v 2.9999999999999999e-02 5.5160643907980145e-01 4.2717863723651028e+00
v 2.9999999999999999e-02 5.3788673318038804e-01 4.2205837328835898e+00
v 2.9999999999999999e-02 5.5160643907980145e-01 4.1693810934020759e+00
v 2.9999999999999999e-02 5.8908937266190153e-01 4.1318981598199764e+00
v 2.9999999999999999e-02 6.4029201214341502e-01 4.1181784539205628e+00
v 2.9999999999999999e-02 8.5000000000000042e-01 4.1181784539205628e+00
v 2.9999999999999999e-02 8.5000000000000053e-01 3.5928659722024827e+00
v 2.9999999999999999e-02 6.4029201214341502e-01 3.5928659722024827e+00
v 2.9999999999999999e-02 5.8908937266190131e-01 3.5791462663030691e+00
v 2.9999999999999999e-02 5.5160643907980111e-01 3.5416633327209688e+00
v 2.9999999999999999e-02 5.3788673318038760e-01 3.4904606932394553e+00
v 2.9999999999999999e-02 5.5160643907980111e-01 3.4392580537579414e+00
v 2.9999999999999999e-02 5.8908937266190131e-01 3.4017751201758415e+00

vn 9.7077562407630158e-01 -2.3998893245161815e-01 -1.7734424135709989e-17
vn 0.0000000000000000e+00 5.8778525229247469e-01 -8.0901699437494634e-01
vn -9.7077562407630158e-01 -2.3998893245161818e-01 -1.7734424135709992e-17
vn -1.0000000000000000e+00 -0.0000000000000000e+00 -0.0000000000000000e+00
vn 0.0000000000000000e+00 -4.0673664307580043e-01 -9.1354545764260076e-01
vn 0.0000000000000000e+00 -4.0673664307580004e-01 -9.1354545764260098e-01
vn 0.0000000000000000e+00 -1.2246467991473532e-16 -1.0000000000000000e+00
vn 0.0000000000000000e+00 1.2246467991473532e-16 -1.0000000000000000e+00
vn 0.0000000000000000e+00 4.0673664307580004e-01 -9.1354545764260098e-01
vn 0.0000000000000000e+00 4.0673664307580043e-01 -9.1354545764260076e-01
vn 0.0000000000000000e+00 7.4314482547739391e-01 -6.6913060635885857e-01
vn 0.0000000000000000e+00 -7.4314482547739391e-01 -6.6913060635885857e-01
vn 0.0000000000000000e+00 -9.5105651629515386e-01 -3.0901699437494679e-01
vn 0.0000000000000000e+00 -9.9452189536827329e-01 1.0452846326765368e-01
vn 0.0000000000000000e+00 -8.6602540378443860e-01 5.0000000000000011e-01
vn 0.0000000000000000e+00 -8.6602540378443871e-01 4.9999999999999989e-01
vn 0.0000000000000000e+00 -5.8778525229247358e-01 8.0901699437494712e-01
vn 0.0000000000000000e+00 -2.0791169081775918e-01 9.7814760073380569e-01
vn 0.0000000000000000e+00 -2.0791169081775959e-01 9.7814760073380558e-01
vn -0.0000000000000000e+00 2.0791169081775959e-01 9.7814760073380558e-01
vn -0.0000000000000000e+00 2.0791169081775918e-01 9.7814760073380569e-01
vn -0.0000000000000000e+00 5.8778525229247358e-01 8.0901699437494712e-01
vn -0.0000000000000000e+00 8.6602540378443871e-01 4.9999999999999989e-01
vn -0.0000000000000000e+00 8.6602540378443860e-01 5.0000000000000011e-01
vn -0.0000000000000000e+00 9.9452189536827329e-01 1.0452846326765368e-01
vn 0.0000000000000000e+00 9.5105651629515386e-01 -3.0901699437494679e-01
vn 0.0000000000000000e+00 -2.1176551946784463e-15 1.0000000000000000e+00
vn -0.0000000000000000e+00 1.0000000000000000e+00 3.1368093966375490e-17
vn -0.0000000000000000e+00 5.8778525229247380e-01 8.0901699437494690e-01
vn 0.0000000000000000e+00 0.0000000000000000e+00 -1.0000000000000000e+00
vn 0.0000000000000000e+00 5.0000000000000078e-01 -8.6602540378443826e-01
vn 0.0000000000000000e+00 8.6602540378443693e-01 -5.0000000000000300e-01
vn 0.0000000000000000e+00 8.6602540378444059e-01 -4.9999999999999645e-01
vn 0.0000000000000000e+00 1.0000000000000000e+00 -6.1232339957367660e-17
vn -0.0000000000000000e+00 8.6602540378444082e-01 4.9999999999999628e-01
vn -0.0000000000000000e+00 8.6602540378443693e-01 5.0000000000000300e-01
vn -0.0000000000000000e+00 5.0000000000000078e-01 8.6602540378443826e-01
vn -0.0000000000000000e+00 1.2246467991473532e-16 1.0000000000000000e+00
vn 0.0000000000000000e+00 0.0000000000000000e+00 1.0000000000000000e+00
vn 0.0000000000000000e+00 5.0000000000000044e-01 -8.6602540378443826e-01
vn 0.0000000000000000e+00 8.6602540378443760e-01 -5.0000000000000155e-01
vn 0.0000000000000000e+00 8.6602540378443960e-01 -4.9999999999999833e-01
vn -0.0000000000000000e+00 8.6602540378443960e-01 4.9999999999999817e-01
vn -0.0000000000000000e+00 8.6602540378443771e-01 5.0000000000000178e-01
vn -0.0000000000000000e+00 5.0000000000000033e-01 8.6602540378443849e-01
vn 1.0000000000000000e+00 0.0000000000000000e+00 0.0000000000000000e+00

g face 0
f 2//1 3//1 1//1
f 1//1 3//1 4//1

g face 1
f 2//2 1//2 7//2
f 7//2 1//2 6//2
f 6//2 1//2 5//2

g face 2
f 5//3 1//3 8//3
f 8//3 1//3 4//3

g face 3
f 8//4 32//4 5//4
f 5//4 32//4 33//4
f 5//4 33//4 34//4
f 9//4 42//4 8//4
f 8//4 42//4 28//4
f 8//4 28//4 29//4
f 10//4 11//4 9//4
f 9//4 11//4 12//4
f 9//4 12//4 13//4
f 9//4 13//4 41//4
f 41//4 13//4 14//4
f 41//4 14//4 40//4
f 40//4 14//4 39//4
f 39//4 14//4 23//4
f 39//4 23//4 38//4
f 38//4 23//4 24//4
f 38//4 24//4 37//4
f 37//4 24//4 6//4
f 37//4 6//4 36//4
f 36//4 6//4 5//4
f 36//4 5//4 35//4
f 35//4 5//4 34//4
f 23//4 14//4 22//4
f 22//4 14//4 15//4
f 22//4 15//4 21//4
f 21//4 15//4 16//4
f 21//4 16//4 20//4
f 20//4 16//4 17//4
f 20//4 17//4 19//4
f 19//4 17//4 18//4
f 24//4 25//4 6//4
f 6//4 25//4 26//4
f 6//4 26//4 27//4
f 29//4 30//4 8//4
f 8//4 30//4 31//4
f 8//4 31//4 32//4
f 41//4 42//4 9//4

g face 4
f 42//5 57//6 28//7
f 28//7 57//6 43//7
f 28//8 43//8 29//9
f 29//9 43//8 44//10
f 29//9 44//10 45//11
f 42//5 41//12 57//6
f 57//6 41//12 56//12
f 56//12 41//12 40//13
f 56//12 40//13 55//13
f 55//13 40//13 39//14
f 55//13 39//14 54//14
f 54//14 39//14 38//15
f 54//14 38//15 53//16
f 53//16 38//15 37//17
f 53//16 37//17 52//17
f 52//17 37//17 36//18
f 52//17 36//18 51//19
f 51//19 36//18 35//20
f 51//19 35//20 50//21
f 50//21 35//20 34//22
f 50//21 34//22 49//22
f 49//22 34//22 33//23
f 49//22 33//23 48//24
f 48//24 33//23 32//25
f 48//24 32//25 47//25
f 47//25 32//25 31//26
f 47//25 31//26 46//26
f 46//26 31//26 30//11
f 46//26 30//11 45//11
f 45//11 30//11 29//9

g face 5
f 58//27 59//27 26//27
f 26//27 59//27 27//27

g face 6
f 59//28 7//28 27//28
f 27//28 7//28 6//28

g face 7
f 3//29 60//29 4//29
f 4//29 60//29 9//29
f 4//29 9//29 8//29

g face 8
f 60//28 61//28 9//28
f 9//28 61//28 10//28

g face 9
f 61//30 62//30 10//30
f 10//30 62//30 11//30

g face 10
f 11//30 62//30 12//31
f 12//31 62//30 63//31
f 12//31 63//31 13//32
f 13//32 63//31 64//33
f 13//32 64//33 14//34
f 14//34 64//33 65//34
f 14//34 65//34 15//35
f 15//35 65//34 66//36
f 15//35 66//36 16//37
f 16//37 66//36 67//37
f 16//37 67//37 17//38
f 17//38 67//37 68//38

g face 11
f 68//39 69//39 17//39
f 17//39 69//39 18//39

g face 12
f 69//28 70//28 18//28
f 18//28 70//28 19//28

g face 13
f 70//30 71//30 19//30
f 19//30 71//30 20//30

g face 14
f 20//30 71//30 21//40
f 21//40 71//30 72//40
f 21//40 72//40 22//41
f 22//41 72//40 73//42
f 22//41 73//42 23//34
f 23//34 73//42 74//34
f 23//34 74//34 24//43
f 24//43 74//34 75//44
f 24//43 75//44 25//45
f 25//45 75//44 76//45
f 25//45 76//45 26//38
f 26//38 76//45 58//38

g face 15
f 2//46 47//46 3//46
f 3//46 47//46 46//46
f 3//46 46//46 45//46
f 7//46 51//46 2//46
f 2//46 51//46 50//46
f 2//46 50//46 49//46
f 59//46 58//46 7//46
f 7//46 58//46 76//46
f 7//46 76//46 75//46
f 74//46 53//46 75//46
f 75//46 53//46 52//46
f 75//46 52//46 7//46
f 7//46 52//46 51//46
f 73//46 66//46 74//46
f 74//46 66//46 65//46
f 74//46 65//46 54//46
f 54//46 65//46 55//46
f 55//46 65//46 56//46
f 56//46 65//46 64//46
f 56//46 64//46 60//46
f 60//46 64//46 63//46
f 60//46 63//46 62//46
f 66//46 73//46 67//46
f 67//46 73//46 72//46
f 67//46 72//46 68//46
f 68//46 72//46 71//46
f 68//46 71//46 69//46
f 69//46 71//46 70//46
f 62//46 61//46 60//46
f 56//46 60//46 57//46
f 57//46 60//46 3//46
f 57//46 3//46 43//46
f 43//46 3//46 44//46
f 44//46 3//46 45//46
f 54//46 53//46 74//46
f 49//46 48//46 2//46
f 2//46 48//46 47//46

g halfedge 0 edge 0
l 2 1

g halfedge 1 edge 0
l 1 2

g halfedge 2 edge 1
l 3 2

g halfedge 3 edge 1
l 2 3

g halfedge 4 edge 2
l 4 3

g halfedge 5 edge 2
l 3 4

g halfedge 6 edge 3
l 1 4

g halfedge 7 edge 3
l 4 1

g halfedge 8 edge 4
l 1 5

g halfedge 9 edge 4
l 5 1

g halfedge 10 edge 5
l 5 6

g halfedge 11 edge 5
l 6 5

g halfedge 12 edge 6
l 6 7

g halfedge 13 edge 6
l 7 6

g halfedge 14 edge 7
l 7 2

g halfedge 15 edge 7
l 2 7

g halfedge 16 edge 8
l 8 4

g halfedge 17 edge 8
l 4 8

g halfedge 18 edge 9
l 5 8

g halfedge 19 edge 9
l 8 5

g halfedge 20 edge 10
l 9 8

g halfedge 21 edge 10
l 8 9

g halfedge 22 edge 11
l 10 9

g halfedge 23 edge 11
l 9 10

g halfedge 24 edge 12
l 11 10

g halfedge 25 edge 12
l 10 11

g halfedge 26 edge 13
l 17 16 15 14 13 12 11

g halfedge 27 edge 13
l 11 12 13 14 15 16 17

g halfedge 28 edge 14
l 18 17

g halfedge 29 edge 14
l 17 18

g halfedge 30 edge 15
l 19 18

g halfedge 31 edge 15
l 18 19

g halfedge 32 edge 16
l 20 19

g halfedge 33 edge 16
l 19 20

g halfedge 34 edge 17
l 26 25 24 23 22 21 20

g halfedge 35 edge 17
l 20 21 22 23 24 25 26

g halfedge 36 edge 18
l 27 26

g halfedge 37 edge 18
l 26 27

g halfedge 38 edge 19
l 6 27

g halfedge 39 edge 19
l 27 6

g halfedge 40 edge 20
l 28 42 41 40 39 38 37 36 35 34 33 32 31 30 29 28

g halfedge 41 edge 20
l 28 29 30 31 32 33 34 35 36 37 38 39 40 41 42 28

g halfedge 42 edge 21
l 43 44 45 46 47 48 49 50 51 52 53 54 55 56 57 43

g halfedge 43 edge 21
l 43 57 56 55 54 53 52 51 50 49 48 47 46 45 44 43

g halfedge 44 edge 22
l 58 26

g halfedge 45 edge 22
l 26 58

g halfedge 46 edge 23
l 58 59

g halfedge 47 edge 23
l 59 58

g halfedge 48 edge 24
l 27 59

g halfedge 49 edge 24
l 59 27

g halfedge 50 edge 25
l 59 7

g halfedge 51 edge 25
l 7 59

g halfedge 52 edge 26
l 3 60

g halfedge 53 edge 26
l 60 3

g halfedge 54 edge 27
l 9 60

g halfedge 55 edge 27
l 60 9

g halfedge 56 edge 28
l 60 61

g halfedge 57 edge 28
l 61 60

g halfedge 58 edge 29
l 10 61

g halfedge 59 edge 29
l 61 10

g halfedge 60 edge 30
l 61 62

g halfedge 61 edge 30
l 62 61

g halfedge 62 edge 31
l 11 62

g halfedge 63 edge 31
l 62 11

g halfedge 64 edge 32
l 62 63 64 65 66 67 68

g halfedge 65 edge 32
l 68 67 66 65 64 63 62

g halfedge 66 edge 33
l 17 68

g halfedge 67 edge 33
l 68 17

g halfedge 68 edge 34
l 68 69

g halfedge 69 edge 34
l 69 68

g halfedge 70 edge 35
l 18 69

g halfedge 71 edge 35
l 69 18

g halfedge 72 edge 36
l 69 70

g halfedge 73 edge 36
l 70 69

g halfedge 74 edge 37
l 19 70

g halfedge 75 edge 37
l 70 19

g halfedge 76 edge 38
l 70 71

g halfedge 77 edge 38
l 71 70

g halfedge 78 edge 39
l 20 71

g halfedge 79 edge 39
l 71 20

g halfedge 80 edge 40
l 71 72 73 74 75 76 58

g halfedge 81 edge 40
l 58 76 75 74 73 72 71

g vertex 0
p 1

g vertex 1
p 2

g vertex 2
p 3

g vertex 3
p 4

g vertex 4
p 5

g vertex 5
p 6

g vertex 6
p 7

g vertex 7
p 8

g vertex 8
p 9

g vertex 9
p 10

g vertex 10
p 11

g vertex 11
p 17

g vertex 12
p 18

g vertex 13
p 19

g vertex 14
p 20

g vertex 15
p 26

g vertex 16
p 27

g vertex 17
p 28

g vertex 18
p 43

g vertex 19
p 58

g vertex 20
p 59

g vertex 21
p 60

g vertex 22
p 61

g vertex 23
p 62

g vertex 24
p 68

g vertex 25
p 69

g vertex 26
p 70

g vertex 27
p 71

# End of file
