# WaveFront *.obj file
# Vertices: 98
# Triangles : 192

v 3.1750000000000000e-01 -3.8881251733860476e-17 7.8740000000000004e-02
v 3.0827402703277151e-01 -7.5982723411299566e-02 7.8740000000000004e-02
v 2.8113228814489410e-01 -1.4754960712389656e-01 7.8740000000000004e-02
v 2.3765216254432464e-01 -2.1054144399145247e-01 7.8740000000000004e-02
v 1.8036055708714194e-01 -2.6129737742123593e-01 7.8740000000000004e-02
v 1.1258705163600508e-01 -2.9686765705261919e-01 7.8740000000000004e-02
v 3.8270395981065089e-02 -3.1518506752613212e-01 7.8740000000000004e-02
v -3.8270395981065054e-02 -3.1518506752613212e-01 7.8740000000000004e-02
v -1.1258705163600505e-01 -2.9686765705261919e-01 7.8740000000000004e-02
v -1.8036055708714196e-01 -2.6129737742123593e-01 7.8740000000000004e-02
v -2.3765216254432456e-01 -2.1054144399145255e-01 7.8740000000000004e-02
v -2.8113228814489416e-01 -1.4754960712389653e-01 7.8740000000000004e-02
v -3.0827402703277151e-01 -7.5982723411299663e-02 7.8740000000000004e-02
v -3.1750000000000000e-01 0.0000000000000000e+00 7.8740000000000004e-02
v -3.0827402703277157e-01 7.5982723411299524e-02 7.8740000000000004e-02
v -2.8113228814489416e-01 1.4754960712389653e-01 7.8740000000000004e-02
v -2.3765216254432464e-01 2.1054144399145244e-01 7.8740000000000004e-02
v -1.8036055708714196e-01 2.6129737742123593e-01 7.8740000000000004e-02
v -1.1258705163600512e-01 2.9686765705261919e-01 7.8740000000000004e-02
v -3.8270395981065193e-02 3.1518506752613212e-01 7.8740000000000004e-02
v 3.8270395981064881e-02 3.1518506752613218e-01 7.8740000000000004e-02
v 1.1258705163600508e-01 2.9686765705261919e-01 7.8740000000000004e-02
v 1.8036055708714194e-01 2.6129737742123593e-01 7.8740000000000004e-02
v 2.3765216254432453e-01 2.1054144399145255e-01 7.8740000000000004e-02
v 2.8113228814489405e-01 1.4754960712389667e-01 7.8740000000000004e-02
v 3.0827402703277146e-01 7.5982723411299843e-02 7.8740000000000004e-02
v 2.3876000000000000e-01 2.9238701303863079e-17 0.0000000000000000e+00
v 2.2990613152716055e-01 6.4416677081451115e-02 0.0000000000000000e+00
v 2.0400117702951961e-01 1.2405586391046008e-01 0.0000000000000000e+00
v 1.6296638847488581e-01 1.7449439483104495e-01 0.0000000000000000e+00
v 1.0984512840868987e-01 2.1199147474575111e-01 0.0000000000000000e+00
v 4.8577157676446860e-02 2.3376611677503142e-01 0.0000000000000000e+00
v -1.6293558614948848e-02 2.3820339533193313e-01 0.0000000000000000e+00
v -7.9955856201944689e-02 2.2497421776508955e-01 0.0000000000000000e+00
v -1.3768819370814567e-01 1.9505973165517312e-01 0.0000000000000000e+00
v -1.8520882776858724e-01 1.5067855758728838e-01 0.0000000000000000e+00
v -2.1899337034744196e-01 9.5122244211688661e-02 0.0000000000000000e+00
v -2.3653617647563432e-01 3.2511149138219821e-02 0.0000000000000000e+00
v -2.3653617647563432e-01 -3.2511149138219821e-02 0.0000000000000000e+00
v -2.1899337034744196e-01 -9.5122244211688564e-02 0.0000000000000000e+00
v -1.8520882776858724e-01 -1.5067855758728838e-01 0.0000000000000000e+00
v -1.3768819370814567e-01 -1.9505973165517312e-01 0.0000000000000000e+00
v -7.9955856201944689e-02 -2.2497421776508955e-01 0.0000000000000000e+00
v -1.6293558614948900e-02 -2.3820339533193313e-01 0.0000000000000000e+00
v 4.8577157676446756e-02 -2.3376611677503142e-01 0.0000000000000000e+00
v 1.0984512840868978e-01 -2.1199147474575117e-01 0.0000000000000000e+00
v 1.6296638847488573e-01 -1.7449439483104504e-01 0.0000000000000000e+00
v 2.0400117702951961e-01 -1.2405586391046008e-01 0.0000000000000000e+00
v 2.2990613152716055e-01 -6.4416677081451115e-02 0.0000000000000000e+00
v 3.1750000000000000e-01 3.8881251733860476e-17 2.1437600000000003e+00
v 3.0827402703277146e-01 -7.5982723411299843e-02 2.1437600000000003e+00
v 2.8113228814489405e-01 -1.4754960712389667e-01 2.1437600000000003e+00
v 2.3765216254432453e-01 -2.1054144399145255e-01 2.1437600000000003e+00
v 1.8036055708714194e-01 -2.6129737742123593e-01 2.1437600000000003e+00
v 1.1258705163600508e-01 -2.9686765705261919e-01 2.1437600000000003e+00
v 3.8270395981064881e-02 -3.1518506752613218e-01 2.1437600000000003e+00
v -3.8270395981065193e-02 -3.1518506752613212e-01 2.1437600000000003e+00
v -1.1258705163600512e-01 -2.9686765705261919e-01 2.1437600000000003e+00
v -1.8036055708714196e-01 -2.6129737742123593e-01 2.1437600000000003e+00
v -2.3765216254432464e-01 -2.1054144399145244e-01 2.1437600000000003e+00
v -2.8113228814489416e-01 -1.4754960712389653e-01 2.1437600000000003e+00
v -3.0827402703277157e-01 -7.5982723411299524e-02 2.1437600000000003e+00
v -3.1750000000000000e-01 0.0000000000000000e+00 2.1437600000000003e+00
v -3.0827402703277151e-01 7.5982723411299663e-02 2.1437600000000003e+00
v -2.8113228814489416e-01 1.4754960712389653e-01 2.1437600000000003e+00
v -2.3765216254432456e-01 2.1054144399145255e-01 2.1437600000000003e+00
v -1.8036055708714196e-01 2.6129737742123593e-01 2.1437600000000003e+00
v -1.1258705163600505e-01 2.9686765705261919e-01 2.1437600000000003e+00
v -3.8270395981065054e-02 3.1518506752613212e-01 2.1437600000000003e+00
v 3.8270395981065089e-02 3.1518506752613212e-01 2.1437600000000003e+00
v 1.1258705163600508e-01 2.9686765705261919e-01 2.1437600000000003e+00
v 1.8036055708714194e-01 2.6129737742123593e-01 2.1437600000000003e+00
v 2.3765216254432464e-01 2.1054144399145247e-01 2.1437600000000003e+00
v 2.8113228814489410e-01 1.4754960712389656e-01 2.1437600000000003e+00
v 3.0827402703277151e-01 7.5982723411299566e-02 2.1437600000000003e+00
v 2.3876000000000000e-01 -2.9238701303863079e-17 2.2225000000000001e+00
v 2.2990613152716055e-01 -6.4416677081451115e-02 2.2225000000000001e+00
v 2.0400117702951961e-01 -1.2405586391046008e-01 2.2225000000000001e+00
v 1.6296638847488581e-01 -1.7449439483104495e-01 2.2225000000000001e+00
v 1.0984512840868987e-01 -2.1199147474575111e-01 2.2225000000000001e+00
v 4.8577157676446860e-02 -2.3376611677503142e-01 2.2225000000000001e+00
v -1.6293558614948848e-02 -2.3820339533193313e-01 2.2225000000000001e+00
v -7.9955856201944689e-02 -2.2497421776508955e-01 2.2225000000000001e+00
v -1.3768819370814567e-01 -1.9505973165517312e-01 2.2225000000000001e+00
v -1.8520882776858724e-01 -1.5067855758728838e-01 2.2225000000000001e+00
v -2.1899337034744196e-01 -9.5122244211688661e-02 2.2225000000000001e+00
v -2.3653617647563432e-01 -3.2511149138219821e-02 2.2225000000000001e+00
v -2.3653617647563432e-01 3.2511149138219821e-02 2.2225000000000001e+00
v -2.1899337034744196e-01 9.5122244211688564e-02 2.2225000000000001e+00
v -1.8520882776858724e-01 1.5067855758728838e-01 2.2225000000000001e+00
v -1.3768819370814567e-01 1.9505973165517312e-01 2.2225000000000001e+00
v -7.9955856201944689e-02 2.2497421776508955e-01 2.2225000000000001e+00
v -1.6293558614948900e-02 2.3820339533193313e-01 2.2225000000000001e+00
v 4.8577157676446756e-02 2.3376611677503142e-01 2.2225000000000001e+00
v 1.0984512840868978e-01 2.1199147474575117e-01 2.2225000000000001e+00
v 1.6296638847488573e-01 1.7449439483104504e-01 2.2225000000000001e+00
v 2.0400117702951961e-01 1.2405586391046008e-01 2.2225000000000001e+00
v 2.2990613152716055e-01 6.4416677081451115e-02 2.2225000000000001e+00

vn 6.8655954323955204e-01 1.6922172906189592e-01 -7.0710678118654746e-01
vn 7.0710678118654746e-01 8.6595605623549316e-17 -7.0710678118654746e-01
vn 7.0710678118654746e-01 -8.6595605623549316e-17 -7.0710678118654746e-01
vn 6.8655954323955215e-01 -1.6922172906189534e-01 -7.0710678118654757e-01
vn 6.8088534360538422e-01 -1.9077512642736702e-01 -7.0710678118654746e-01
vn 6.2611196018187432e-01 -3.2860890632667150e-01 -7.0710678118654746e-01
vn 6.0416575493219415e-01 -3.6740133446574735e-01 -7.0710678118654757e-01
vn 5.2927702582280178e-01 -4.6889852840051560e-01 -7.0710678118654757e-01
vn 4.8263795609010263e-01 -5.1677906627607129e-01 -7.0710678118654746e-01
vn 4.0168243456661890e-01 -5.8193747238052473e-01 -7.0710678118654757e-01
vn 3.2531510796654223e-01 -6.2782965884761854e-01 -7.0710678118654746e-01
vn 2.5074352026966668e-01 -6.6115632572242344e-01 -7.0710678118654757e-01
vn 1.4386512650269581e-01 -6.9231699775201483e-01 -7.0710678118654746e-01
vn 8.5232303990253611e-02 -7.0195117661879669e-01 -7.0710678118654746e-01
vn -4.8254673254694500e-02 -7.0545835207266672e-01 -7.0710678118654746e-01
vn -8.5232303990253555e-02 -7.0195117661879680e-01 -7.0710678118654746e-01
vn -2.3679564464722552e-01 -6.6627908767730726e-01 -7.0710678118654746e-01
vn -2.5074352026966668e-01 -6.6115632572242355e-01 -7.0710678118654757e-01
vn -4.0777456634426512e-01 -5.7768495137293185e-01 -7.0710678118654746e-01
vn -4.0168243456661890e-01 -5.8193747238052462e-01 -7.0710678118654746e-01
vn -5.2927702582280167e-01 -4.6889852840051582e-01 -7.0710678118654757e-01
vn -5.4851071390006456e-01 -4.4624656495803039e-01 -7.0710678118654757e-01
vn -6.2611196018187432e-01 -3.2860890632667134e-01 -7.0710678118654746e-01
vn -6.4856633107544492e-01 -2.8171211226238818e-01 -7.0710678118654746e-01
vn -6.8655954323955204e-01 -1.6922172906189553e-01 -7.0710678118654746e-01
vn -7.0052075046849960e-01 -9.6284360947405015e-02 -7.0710678118654735e-01
vn -7.0710678118654746e-01 0.0000000000000000e+00 -7.0710678118654746e-01
vn -7.0052075046849960e-01 9.6284360947405015e-02 -7.0710678118654735e-01
vn -6.8655954323955215e-01 1.6922172906189520e-01 -7.0710678118654757e-01
vn -6.4856633107544481e-01 2.8171211226238846e-01 -7.0710678118654746e-01
vn -6.2611196018187432e-01 3.2860890632667134e-01 -7.0710678118654746e-01
vn -5.4851071390006456e-01 4.4624656495803039e-01 -7.0710678118654757e-01
vn -5.2927702582280178e-01 4.6889852840051560e-01 -7.0710678118654746e-01
vn -4.0777456634426512e-01 5.7768495137293185e-01 -7.0710678118654746e-01
vn -4.0168243456661890e-01 5.8193747238052462e-01 -7.0710678118654746e-01
vn -2.5074352026966679e-01 6.6115632572242344e-01 -7.0710678118654757e-01
vn -2.3679564464722552e-01 6.6627908767730726e-01 -7.0710678118654746e-01
vn -8.5232303990253860e-02 7.0195117661879669e-01 -7.0710678118654746e-01
vn -4.8254673254694361e-02 7.0545835207266694e-01 -7.0710678118654757e-01
vn 8.5232303990253125e-02 7.0195117661879658e-01 -7.0710678118654746e-01
vn 1.4386512650269612e-01 6.9231699775201483e-01 -7.0710678118654768e-01
vn 2.5074352026966668e-01 6.6115632572242344e-01 -7.0710678118654757e-01
vn 3.2531510796654250e-01 6.2782965884761843e-01 -7.0710678118654746e-01
vn 4.0168243456661890e-01 5.8193747238052473e-01 -7.0710678118654757e-01
vn 4.8263795609010296e-01 5.1677906627607106e-01 -7.0710678118654746e-01
vn 5.2927702582280167e-01 4.6889852840051593e-01 -7.0710678118654746e-01
vn 6.0416575493219415e-01 3.6740133446574735e-01 -7.0710678118654757e-01
vn 6.2611196018187409e-01 3.2860890632667172e-01 -7.0710678118654757e-01
vn 6.8088534360538422e-01 1.9077512642736702e-01 -7.0710678118654746e-01
vn 9.7094181742605179e-01 -2.3931566428755857e-01 -0.0000000000000000e+00
vn 9.7094181742605212e-01 -2.3931566428755774e-01 -0.0000000000000000e+00
vn 1.0000000000000000e+00 -1.2246467991473532e-16 -0.0000000000000000e+00
vn 1.0000000000000000e+00 1.2246467991473532e-16 -0.0000000000000000e+00
vn 9.7094181742605212e-01 2.3931566428755774e-01 -0.0000000000000000e+00
vn 9.7094181742605179e-01 2.3931566428755857e-01 -0.0000000000000000e+00
vn 8.8545602565320980e-01 4.6472317204376867e-01 -0.0000000000000000e+00
vn 8.8545602565320969e-01 4.6472317204376901e-01 -0.0000000000000000e+00
vn 7.4851074817110119e-01 6.6312265824079519e-01 -0.0000000000000000e+00
vn 7.4851074817110097e-01 6.6312265824079553e-01 -0.0000000000000000e+00
vn 5.6806474673115570e-01 8.2298386589365646e-01 -0.0000000000000000e+00
vn 3.5460488704253568e-01 9.3501624268541483e-01 -0.0000000000000000e+00
vn 1.2053668025532312e-01 9.9270887409805397e-01 -0.0000000000000000e+00
vn 1.2053668025532246e-01 9.9270887409805408e-01 -0.0000000000000000e+00
vn -1.2053668025532301e-01 9.9270887409805397e-01 -0.0000000000000000e+00
vn -1.2053668025532344e-01 9.9270887409805397e-01 -0.0000000000000000e+00
vn -3.5460488704253562e-01 9.3501624268541483e-01 -0.0000000000000000e+00
vn -3.5460488704253579e-01 9.3501624268541472e-01 -0.0000000000000000e+00
vn -5.6806474673115581e-01 8.2298386589365646e-01 -0.0000000000000000e+00
vn -7.4851074817110097e-01 6.6312265824079553e-01 -0.0000000000000000e+00
vn -7.4851074817110119e-01 6.6312265824079508e-01 -0.0000000000000000e+00
vn -8.8545602565320991e-01 4.6472317204376862e-01 -0.0000000000000000e+00
vn -9.7094181742605201e-01 2.3931566428755799e-01 -0.0000000000000000e+00
vn -9.7094181742605212e-01 2.3931566428755754e-01 -0.0000000000000000e+00
vn -1.0000000000000000e+00 -0.0000000000000000e+00 0.0000000000000000e+00
vn -9.7094181742605212e-01 -2.3931566428755754e-01 0.0000000000000000e+00
vn -9.7094181742605201e-01 -2.3931566428755799e-01 0.0000000000000000e+00
vn -8.8545602565320991e-01 -4.6472317204376862e-01 0.0000000000000000e+00
vn -7.4851074817110119e-01 -6.6312265824079508e-01 0.0000000000000000e+00
vn -7.4851074817110097e-01 -6.6312265824079553e-01 0.0000000000000000e+00
vn -5.6806474673115581e-01 -8.2298386589365646e-01 0.0000000000000000e+00
vn -3.5460488704253579e-01 -9.3501624268541472e-01 0.0000000000000000e+00
vn -3.5460488704253562e-01 -9.3501624268541483e-01 0.0000000000000000e+00
vn -1.2053668025532344e-01 -9.9270887409805397e-01 0.0000000000000000e+00
vn -1.2053668025532301e-01 -9.9270887409805397e-01 0.0000000000000000e+00
vn 1.2053668025532246e-01 -9.9270887409805408e-01 -0.0000000000000000e+00
vn 1.2053668025532312e-01 -9.9270887409805397e-01 -0.0000000000000000e+00
vn 3.5460488704253568e-01 -9.3501624268541483e-01 -0.0000000000000000e+00
vn 5.6806474673115570e-01 -8.2298386589365646e-01 -0.0000000000000000e+00
vn 7.4851074817110097e-01 -6.6312265824079553e-01 -0.0000000000000000e+00
vn 7.4851074817110119e-01 -6.6312265824079519e-01 -0.0000000000000000e+00
vn 8.8545602565320969e-01 -4.6472317204376901e-01 -0.0000000000000000e+00
vn 8.8545602565320980e-01 -4.6472317204376867e-01 -0.0000000000000000e+00
vn 0.0000000000000000e+00 0.0000000000000000e+00 -1.0000000000000000e+00
vn 6.8088534360538344e-01 -1.9077512642736680e-01 7.0710678118654835e-01
vn 6.8655954323955115e-01 -1.6922172906189570e-01 7.0710678118654824e-01
vn 7.0710678118654657e-01 -8.6595605623549230e-17 7.0710678118654824e-01
vn 7.0710678118654668e-01 -8.6595605623549230e-17 7.0710678118654835e-01
vn 7.0710678118654657e-01 8.6595605623549230e-17 7.0710678118654824e-01
vn 7.0710678118654668e-01 8.6595605623549230e-17 7.0710678118654835e-01
vn 6.8655954323955137e-01 1.6922172906189514e-01 7.0710678118654835e-01
vn 6.2611196018187332e-01 -3.2860890632667134e-01 7.0710678118654824e-01
vn 6.0416575493219338e-01 -3.6740133446574685e-01 7.0710678118654824e-01
vn 5.2927702582280101e-01 -4.6889852840051538e-01 7.0710678118654846e-01
vn 4.8263795609010235e-01 -5.1677906627607051e-01 7.0710678118654824e-01
vn 4.0168243456661834e-01 -5.8193747238052407e-01 7.0710678118654835e-01
vn 3.2531510796654206e-01 -6.2782965884761754e-01 7.0710678118654824e-01
vn 2.5074352026966634e-01 -6.6115632572242267e-01 7.0710678118654824e-01
vn 1.4386512650269592e-01 -6.9231699775201394e-01 7.0710678118654835e-01
vn 8.5232303990253042e-02 -7.0195117661879580e-01 7.0710678118654846e-01
vn -4.8254673254694305e-02 -7.0545835207266605e-01 7.0710678118654835e-01
vn -8.5232303990253749e-02 -7.0195117661879569e-01 7.0710678118654824e-01
vn -2.3679564464722525e-01 -6.6627908767730648e-01 7.0710678118654835e-01
vn -2.5074352026966645e-01 -6.6115632572242267e-01 7.0710678118654835e-01
vn -4.0777456634426457e-01 -5.7768495137293108e-01 7.0710678118654824e-01
vn -4.0168243456661845e-01 -5.8193747238052407e-01 7.0710678118654846e-01
vn -5.2927702582280123e-01 -4.6889852840051505e-01 7.0710678118654824e-01
vn -5.4851071390006390e-01 -4.4624656495802989e-01 7.0710678118654835e-01
vn -6.2611196018187365e-01 -3.2860890632667100e-01 7.0710678118654835e-01
vn -6.4856633107544404e-01 -2.8171211226238813e-01 7.0710678118654835e-01
vn -6.8655954323955126e-01 -1.6922172906189498e-01 7.0710678118654835e-01
vn -7.0052075046849860e-01 -9.6284360947404890e-02 7.0710678118654824e-01
vn -7.0710678118654668e-01 -0.0000000000000000e+00 7.0710678118654835e-01
vn -7.0052075046849860e-01 9.6284360947404890e-02 7.0710678118654824e-01
vn -6.8655954323955126e-01 1.6922172906189534e-01 7.0710678118654835e-01
vn -6.4856633107544415e-01 2.8171211226238785e-01 7.0710678118654846e-01
vn -6.2611196018187365e-01 3.2860890632667100e-01 7.0710678118654835e-01
vn -5.4851071390006390e-01 4.4624656495802989e-01 7.0710678118654835e-01
vn -5.2927702582280101e-01 4.6889852840051521e-01 7.0710678118654835e-01
vn -4.0777456634426457e-01 5.7768495137293108e-01 7.0710678118654824e-01
vn -4.0168243456661845e-01 5.8193747238052407e-01 7.0710678118654846e-01
vn -2.5074352026966634e-01 6.6115632572242267e-01 7.0710678118654835e-01
vn -2.3679564464722525e-01 6.6627908767730648e-01 7.0710678118654835e-01
vn -8.5232303990253430e-02 7.0195117661879580e-01 7.0710678118654835e-01
vn -4.8254673254694451e-02 7.0545835207266583e-01 7.0710678118654824e-01
vn 8.5232303990253513e-02 7.0195117661879580e-01 7.0710678118654835e-01
vn 1.4386512650269564e-01 6.9231699775201405e-01 7.0710678118654835e-01
vn 2.5074352026966634e-01 6.6115632572242267e-01 7.0710678118654824e-01
vn 3.2531510796654184e-01 6.2782965884761766e-01 7.0710678118654824e-01
vn 4.0168243456661834e-01 5.8193747238052407e-01 7.0710678118654835e-01
vn 4.8263795609010213e-01 5.1677906627607062e-01 7.0710678118654824e-01
vn 5.2927702582280123e-01 4.6889852840051516e-01 7.0710678118654835e-01
vn 6.0416575493219338e-01 3.6740133446574685e-01 7.0710678118654824e-01
vn 6.2611196018187354e-01 3.2860890632667106e-01 7.0710678118654835e-01
vn 6.8088534360538344e-01 1.9077512642736680e-01 7.0710678118654835e-01
vn -0.0000000000000000e+00 -0.0000000000000000e+00 1.0000000000000000e+00

g face 0
f 26//1 1//2 27//2
f 27//3 1//3 2//4
f 27//3 2//4 49//5
f 49//5 2//4 3//6
f 49//5 3//6 48//7
f 48//7 3//6 4//8
f 48//7 4//8 47//9
f 47//9 4//8 5//10
f 47//9 5//10 46//11
f 46//11 5//10 6//12
f 46//11 6//12 45//13
f 45//13 6//12 7//14
f 45//13 7//14 44//15
f 44//15 7//14 8//16
f 44//15 8//16 43//17
f 43//17 8//16 9//18
f 43//17 9//18 42//19
f 42//19 9//18 10//20
f 42//19 10//20 11//21
f 42//19 11//21 41//22
f 41//22 11//21 12//23
f 41//22 12//23 40//24
f 40//24 12//23 13//25
f 40//24 13//25 39//26
f 39//26 13//25 14//27
f 39//26 14//27 38//28
f 38//28 14//27 15//29
f 38//28 15//29 37//30
f 37//30 15//29 16//31
f 37//30 16//31 36//32
f 36//32 16//31 17//33
f 36//32 17//33 35//34
f 35//34 17//33 18//35
f 35//34 18//35 19//36
f 35//34 19//36 34//37
f 34//37 19//36 20//38
f 34//37 20//38 33//39
f 33//39 20//38 21//40
f 33//39 21//40 32//41
f 32//41 21//40 22//42
f 32//41 22//42 31//43
f 31//43 22//42 23//44
f 31//43 23//44 30//45
f 30//45 23//44 24//46
f 30//45 24//46 29//47
f 29//47 24//46 25//48
f 29//47 25//48 28//49
f 28//49 25//48 26//1
f 28//49 26//1 27//2

g face 1
f 51//50 2//51 50//52
f 50//52 2//51 1//52
f 50//53 1//53 75//54
f 75//54 1//53 26//55
f 75//54 26//55 74//56
f 74//56 26//55 25//57
f 74//56 25//57 73//58
f 73//58 25//57 24//59
f 73//58 24//59 72//60
f 72//60 24//59 23//60
f 72//60 23//60 71//61
f 71//61 23//60 22//61
f 71//61 22//61 70//62
f 70//62 22//61 21//63
f 70//62 21//63 69//64
f 69//64 21//63 20//65
f 69//64 20//65 68//66
f 68//66 20//65 19//67
f 68//66 19//67 67//68
f 67//68 19//67 18//68
f 67//68 18//68 66//69
f 66//69 18//68 17//70
f 66//69 17//70 65//71
f 65//71 17//70 16//71
f 65//71 16//71 64//72
f 64//72 16//71 15//73
f 64//72 15//73 63//74
f 63//74 15//73 14//74
f 63//74 14//74 62//75
f 62//75 14//74 13//76
f 62//75 13//76 61//77
f 61//77 13//76 12//77
f 61//77 12//77 60//78
f 60//78 12//77 11//79
f 60//78 11//79 59//80
f 59//80 11//79 10//80
f 59//80 10//80 58//81
f 58//81 10//80 9//82
f 58//81 9//82 57//83
f 57//83 9//82 8//84
f 57//83 8//84 56//85
f 56//85 8//84 7//86
f 56//85 7//86 55//87
f 55//87 7//86 6//87
f 55//87 6//87 54//88
f 54//88 6//87 5//88
f 54//88 5//88 53//89
f 53//89 5//88 4//90
f 53//89 4//90 52//91
f 52//91 4//90 3//92
f 52//91 3//92 51//50
f 51//50 3//92 2//51

g face 2
f 27//93 49//93 28//93
f 28//93 49//93 29//93
f 29//93 49//93 48//93
f 29//93 48//93 30//93
f 30//93 48//93 47//93
f 30//93 47//93 31//93
f 31//93 47//93 46//93
f 31//93 46//93 32//93
f 32//93 46//93 45//93
f 32//93 45//93 33//93
f 33//93 45//93 34//93
f 34//93 45//93 35//93
f 35//93 45//93 36//93
f 36//93 45//93 37//93
f 37//93 45//93 38//93
f 38//93 45//93 39//93
f 39//93 45//93 40//93
f 40//93 45//93 41//93
f 41//93 45//93 42//93
f 42//93 45//93 43//93
f 43//93 45//93 44//93

g face 3
f 77//94 51//95 76//96
f 76//96 51//95 50//97
f 76//98 50//99 75//100
f 51//95 77//94 52//101
f 52//101 77//94 78//102
f 52//101 78//102 53//103
f 53//103 78//102 79//104
f 53//103 79//104 54//105
f 54//105 79//104 80//106
f 54//105 80//106 55//107
f 55//107 80//106 81//108
f 55//107 81//108 56//109
f 56//109 81//108 82//110
f 56//109 82//110 57//111
f 57//111 82//110 83//112
f 57//111 83//112 58//113
f 58//113 83//112 84//114
f 58//113 84//114 59//115
f 59//115 84//114 60//116
f 60//116 84//114 85//117
f 60//116 85//117 61//118
f 61//118 85//117 86//119
f 61//118 86//119 62//120
f 62//120 86//119 87//121
f 62//120 87//121 63//122
f 63//122 87//121 88//123
f 63//122 88//123 64//124
f 64//124 88//123 89//125
f 64//124 89//125 65//126
f 65//126 89//125 90//127
f 65//126 90//127 66//128
f 66//128 90//127 91//129
f 66//128 91//129 67//130
f 67//130 91//129 68//131
f 68//131 91//129 92//132
f 68//131 92//132 69//133
f 69//133 92//132 93//134
f 69//133 93//134 70//135
f 70//135 93//134 94//136
f 70//135 94//136 71//137
f 71//137 94//136 95//138
f 71//137 95//138 72//139
f 72//139 95//138 96//140
f 72//139 96//140 73//141
f 73//141 96//140 97//142
f 73//141 97//142 74//143
f 74//143 97//142 98//144
f 74//143 98//144 75//100
f 75//100 98//144 76//98

g face 4
f 76//145 98//145 77//145
f 77//145 98//145 97//145
f 77//145 97//145 78//145
f 78//145 97//145 96//145
f 78//145 96//145 79//145
f 79//145 96//145 95//145
f 79//145 95//145 80//145
f 80//145 95//145 94//145
f 80//145 94//145 81//145
f 81//145 94//145 93//145
f 81//145 93//145 92//145
f 92//145 91//145 81//145
f 81//145 91//145 90//145
f 81//145 90//145 89//145
f 89//145 88//145 81//145
f 81//145 88//145 87//145
f 81//145 87//145 86//145
f 86//145 85//145 81//145
f 81//145 85//145 84//145
f 81//145 84//145 83//145
f 83//145 82//145 81//145

g halfedge 0 edge 0
l 1 26 25 24 23 22 21 20 19 18 17 16 15 14 13 12 11 10 9 8 7 6 5 4 3 2 1

g halfedge 1 edge 0
l 1 2 3 4 5 6 7 8 9 10 11 12 13 14 15 16 17 18 19 20 21 22 23 24 25 26 1

g halfedge 2 edge 1
l 27 49 48 47 46 45 44 43 42 41 40 39 38 37 36 35 34 33 32 31 30 29 28 27

g halfedge 3 edge 1
l 27 28 29 30 31 32 33 34 35 36 37 38 39 40 41 42 43 44 45 46 47 48 49 27

g halfedge 4 edge 2
l 50 51 52 53 54 55 56 57 58 59 60 61 62 63 64 65 66 67 68 69 70 71 72 73 74 75 50

g halfedge 5 edge 2
l 50 75 74 73 72 71 70 69 68 67 66 65 64 63 62 61 60 59 58 57 56 55 54 53 52 51 50

g halfedge 6 edge 3
l 76 98 97 96 95 94 93 92 91 90 89 88 87 86 85 84 83 82 81 80 79 78 77 76

g halfedge 7 edge 3
l 76 77 78 79 80 81 82 83 84 85 86 87 88 89 90 91 92 93 94 95 96 97 98 76

g vertex 0
p 1

g vertex 1
p 27

g vertex 2
p 50

g vertex 3
p 76

# End of file
